<svg width="272" height="19" viewBox="0 0 272 19" fill="none" xmlns="http://www.w3.org/2000/svg">
<path d="M9.9082 11.3281C9.9082 12.4219 9.4362 13.3626 8.49219 14.1504C7.54818 14.9382 6.30794 15.332 4.77148 15.332C3.33268 15.332 2.18034 14.9707 1.31445 14.248C0.448568 13.5254 0.015625 12.5944 0.015625 11.4551C0.015625 10.6152 0.269531 9.91536 0.777344 9.35547C1.29167 8.78906 2.05013 8.31055 3.05273 7.91992C2.22591 7.45768 1.60742 6.94987 1.19727 6.39648C0.787109 5.8431 0.582031 5.2181 0.582031 4.52148C0.582031 3.46029 1.03125 2.57161 1.92969 1.85547C2.83464 1.13932 3.91536 0.78125 5.17188 0.78125C6.42839 0.78125 7.44401 1.11979 8.21875 1.79688C9 2.47396 9.39062 3.32357 9.39062 4.3457C9.39062 5.00326 9.17578 5.62826 8.74609 6.2207C8.31641 6.80664 7.6849 7.28841 6.85156 7.66602C7.93229 8.12826 8.71029 8.63932 9.18555 9.19922C9.66732 9.75911 9.9082 10.4688 9.9082 11.3281ZM7.54492 4.23828C7.54492 3.44401 7.30729 2.79948 6.83203 2.30469C6.36328 1.80339 5.76107 1.55273 5.02539 1.55273C4.28971 1.55273 3.6875 1.79362 3.21875 2.27539C2.75 2.75065 2.51562 3.3431 2.51562 4.05273C2.51562 4.73633 2.78255 5.31576 3.31641 5.79102C3.85026 6.26628 4.80078 6.77409 6.16797 7.31445C6.65625 7.00195 7.00781 6.58854 7.22266 6.07422C7.4375 5.5599 7.54492 4.94792 7.54492 4.23828ZM7.95508 11.7871C7.95508 11.377 7.86719 11.0189 7.69141 10.7129C7.51562 10.4004 7.26172 10.1172 6.92969 9.86328C6.61068 9.61589 6.16471 9.35872 5.5918 9.0918C5.02539 8.81836 4.41016 8.54167 3.74609 8.26172C3.12109 8.60026 2.66211 9.0332 2.36914 9.56055C2.07617 10.0814 1.92969 10.6771 1.92969 11.3477C1.92969 12.3047 2.20964 13.0794 2.76953 13.6719C3.33594 14.2578 4.08789 14.5508 5.02539 14.5508C5.92383 14.5508 6.63672 14.2904 7.16406 13.7695C7.69141 13.2487 7.95508 12.5879 7.95508 11.7871ZM16.8895 18.5645C16.2775 18.5645 15.7176 18.4863 15.2098 18.3301C14.702 18.1803 14.2658 17.9753 13.9012 17.7148C13.5366 17.4544 13.2534 17.1549 13.0516 16.8164C12.8562 16.4779 12.7586 16.1296 12.7586 15.7715C12.7586 15.4525 12.8367 15.166 12.993 14.9121C13.1492 14.6517 13.3999 14.5215 13.7449 14.5215C14.1355 14.5215 14.4318 14.6191 14.6336 14.8145C14.8419 15.0033 14.9461 15.2214 14.9461 15.4688C14.9461 15.6771 14.9103 15.9408 14.8387 16.2598C14.7736 16.5788 14.7215 16.8066 14.6824 16.9434C14.728 17.002 14.8094 17.0801 14.9266 17.1777C15.0503 17.2754 15.2 17.3633 15.3758 17.4414C15.5841 17.5391 15.8022 17.6172 16.0301 17.6758C16.2579 17.7344 16.5802 17.7637 16.9969 17.7637C17.3875 17.7637 17.7618 17.6986 18.1199 17.5684C18.4845 17.4382 18.8035 17.2298 19.077 16.9434C19.3634 16.6439 19.5848 16.2923 19.741 15.8887C19.9038 15.4915 19.9852 14.9674 19.9852 14.3164C19.9852 13.9648 19.9461 13.6165 19.868 13.2715C19.7964 12.9264 19.6596 12.627 19.4578 12.373C19.256 12.1191 18.9793 11.9238 18.6277 11.7871C18.2827 11.6439 17.8432 11.5723 17.3094 11.5723H16.0301V10.4492H16.8797C17.7781 10.4492 18.4259 10.2018 18.823 9.70703C19.2202 9.21224 19.4187 8.4668 19.4187 7.4707C19.4187 6.6569 19.2267 6.04492 18.8426 5.63477C18.4585 5.2181 17.9148 5.00977 17.2117 5.00977C16.8732 5.00977 16.5932 5.05208 16.3719 5.13672C16.157 5.21484 15.9812 5.29297 15.8445 5.37109C15.6818 5.46224 15.5483 5.56315 15.4441 5.67383C15.34 5.78451 15.2618 5.86589 15.2098 5.91797C15.2553 6.1263 15.3107 6.38346 15.3758 6.68945C15.4409 6.98893 15.4734 7.27539 15.4734 7.54883C15.4734 7.78971 15.3693 8.00781 15.1609 8.20312C14.9591 8.39193 14.6596 8.48633 14.2625 8.48633C13.9174 8.48633 13.6635 8.36263 13.5008 8.11523C13.3445 7.86784 13.2664 7.58138 13.2664 7.25586C13.2664 6.91732 13.3608 6.57227 13.5496 6.2207C13.7384 5.86914 14.0184 5.54036 14.3895 5.23438C14.7605 4.92839 15.213 4.68099 15.7469 4.49219C16.2807 4.30339 16.896 4.20898 17.5926 4.20898C18.3934 4.20898 19.0542 4.32943 19.575 4.57031C20.1023 4.80469 20.5158 5.09115 20.8152 5.42969C21.1082 5.76172 21.31 6.11003 21.4207 6.47461C21.5314 6.83919 21.5867 7.15169 21.5867 7.41211C21.5867 7.73763 21.5411 8.06641 21.45 8.39844C21.3589 8.72396 21.2091 9.02669 21.0008 9.30664C20.7729 9.61263 20.4702 9.89258 20.0926 10.1465C19.7215 10.3939 19.2527 10.5957 18.6863 10.752V10.9082C19.0509 10.9408 19.4383 11.0221 19.8484 11.1523C20.2651 11.2826 20.6395 11.4746 20.9715 11.7285C21.3165 11.9954 21.5997 12.3405 21.8211 12.7637C22.0424 13.1803 22.1531 13.7109 22.1531 14.3555C22.1531 15.6055 21.6518 16.6178 20.6492 17.3926C19.6466 18.1738 18.3934 18.5645 16.8895 18.5645ZM35.277 11.3281C35.277 12.4219 34.8049 13.3626 33.8609 14.1504C32.9169 14.9382 31.6767 15.332 30.1402 15.332C28.7014 15.332 27.5491 14.9707 26.6832 14.248C25.8173 13.5254 25.3844 12.5944 25.3844 11.4551C25.3844 10.6152 25.6383 9.91536 26.1461 9.35547C26.6604 8.78906 27.4189 8.31055 28.4215 7.91992C27.5947 7.45768 26.9762 6.94987 26.566 6.39648C26.1559 5.8431 25.9508 5.2181 25.9508 4.52148C25.9508 3.46029 26.4 2.57161 27.2984 1.85547C28.2034 1.13932 29.2841 0.78125 30.5406 0.78125C31.7971 0.78125 32.8128 1.11979 33.5875 1.79688C34.3687 2.47396 34.7594 3.32357 34.7594 4.3457C34.7594 5.00326 34.5445 5.62826 34.1148 6.2207C33.6852 6.80664 33.0536 7.28841 32.2203 7.66602C33.301 8.12826 34.079 8.63932 34.5543 9.19922C35.0361 9.75911 35.277 10.4688 35.277 11.3281ZM32.9137 4.23828C32.9137 3.44401 32.676 2.79948 32.2008 2.30469C31.732 1.80339 31.1298 1.55273 30.3941 1.55273C29.6585 1.55273 29.0562 1.79362 28.5875 2.27539C28.1187 2.75065 27.8844 3.3431 27.8844 4.05273C27.8844 4.73633 28.1513 5.31576 28.6852 5.79102C29.219 6.26628 30.1695 6.77409 31.5367 7.31445C32.025 7.00195 32.3766 6.58854 32.5914 6.07422C32.8062 5.5599 32.9137 4.94792 32.9137 4.23828ZM33.3238 11.7871C33.3238 11.377 33.2359 11.0189 33.0602 10.7129C32.8844 10.4004 32.6305 10.1172 32.2984 9.86328C31.9794 9.61589 31.5335 9.35872 30.9605 9.0918C30.3941 8.81836 29.7789 8.54167 29.1148 8.26172C28.4898 8.60026 28.0309 9.0332 27.7379 9.56055C27.4449 10.0814 27.2984 10.6771 27.2984 11.3477C27.2984 12.3047 27.5784 13.0794 28.1383 13.6719C28.7047 14.2578 29.4566 14.5508 30.3941 14.5508C31.2926 14.5508 32.0055 14.2904 32.5328 13.7695C33.0602 13.2487 33.3238 12.5879 33.3238 11.7871ZM47.5316 5.87891C47.9483 6.38021 48.2576 6.9694 48.4594 7.64648C48.6677 8.31706 48.7719 9.02018 48.7719 9.75586C48.7719 10.6413 48.6449 11.4355 48.391 12.1387C48.1371 12.8353 47.7888 13.4147 47.3461 13.877C46.8904 14.3522 46.35 14.7103 45.725 14.9512C45.1 15.1921 44.4034 15.3125 43.6352 15.3125C42.7953 15.3125 42.0466 15.1725 41.3891 14.8926C40.7315 14.6126 40.1977 14.2285 39.7875 13.7402C39.3578 13.2324 39.0355 12.64 38.8207 11.9629C38.6124 11.2793 38.5082 10.5436 38.5082 9.75586C38.5082 8.98112 38.6091 8.26823 38.8109 7.61719C39.0193 6.96615 39.3415 6.37695 39.7777 5.84961C40.1944 5.3418 40.7315 4.94141 41.3891 4.64844C42.0466 4.35547 42.7986 4.20898 43.6449 4.20898C44.5368 4.20898 45.3018 4.35872 45.9398 4.6582C46.5779 4.95768 47.1085 5.36458 47.5316 5.87891ZM46.6137 9.75586C46.6137 8.20638 46.3467 7.00521 45.8129 6.15234C45.2855 5.29948 44.5661 4.87305 43.6547 4.87305C42.7302 4.87305 42.001 5.29948 41.4672 6.15234C40.9333 7.00521 40.6664 8.20638 40.6664 9.75586C40.6664 11.2272 40.9203 12.4121 41.4281 13.3105C41.9424 14.2025 42.6781 14.6484 43.6352 14.6484C44.5922 14.6484 45.3279 14.2025 45.8422 13.3105C46.3565 12.4121 46.6137 11.2272 46.6137 9.75586ZM67.2363 15H58.0859V13.6719C58.2617 13.4701 58.5059 13.2454 58.8184 12.998C59.1309 12.7441 59.502 12.4707 59.9316 12.1777C60.1921 12.002 60.5046 11.8099 60.8691 11.6016C61.2337 11.3932 61.6471 11.1654 62.1094 10.918C62.6237 10.6445 63.0176 10.4036 63.291 10.1953C63.571 9.98698 63.8249 9.72982 64.0527 9.42383C64.2025 9.22201 64.3229 8.97135 64.4141 8.67188C64.5052 8.36589 64.5508 7.93294 64.5508 7.37305C64.5508 6.55924 64.3327 5.96354 63.8965 5.58594C63.4603 5.20182 62.9004 5.00977 62.2168 5.00977C61.7936 5.00977 61.3932 5.0944 61.0156 5.26367C60.638 5.42643 60.3548 5.6543 60.166 5.94727C60.2116 6.1556 60.2669 6.40299 60.332 6.68945C60.4036 6.97591 60.4395 7.25586 60.4395 7.5293C60.4395 7.77669 60.3353 7.99805 60.127 8.19336C59.9251 8.38216 59.6224 8.47656 59.2188 8.47656C58.8932 8.47656 58.6426 8.36589 58.4668 8.14453C58.291 7.91667 58.2031 7.61393 58.2031 7.23633C58.2031 6.88477 58.3008 6.5332 58.4961 6.18164C58.6914 5.82357 58.9714 5.49479 59.3359 5.19531C59.694 4.90234 60.1367 4.66471 60.6641 4.48242C61.1914 4.30013 61.7611 4.20898 62.373 4.20898C63.7077 4.20898 64.7656 4.50846 65.5469 5.10742C66.3346 5.69987 66.7285 6.49414 66.7285 7.49023C66.7285 7.96549 66.6569 8.39844 66.5137 8.78906C66.377 9.17969 66.1523 9.52474 65.8398 9.82422C65.4948 10.1562 65.0911 10.4427 64.6289 10.6836C64.1667 10.918 63.4603 11.2467 62.5098 11.6699C61.9434 11.9238 61.416 12.1908 60.9277 12.4707C60.4395 12.7441 60.0391 13.0111 59.7266 13.2715H67.2363V15ZM80.2918 11.3281C80.2918 12.4219 79.8198 13.3626 78.8758 14.1504C77.9318 14.9382 76.6915 15.332 75.1551 15.332C73.7163 15.332 72.5639 14.9707 71.698 14.248C70.8322 13.5254 70.3992 12.5944 70.3992 11.4551C70.3992 10.6152 70.6531 9.91536 71.1609 9.35547C71.6753 8.78906 72.4337 8.31055 73.4363 7.91992C72.6095 7.45768 71.991 6.94987 71.5809 6.39648C71.1707 5.8431 70.9656 5.2181 70.9656 4.52148C70.9656 3.46029 71.4148 2.57161 72.3133 1.85547C73.2182 1.13932 74.299 0.78125 75.5555 0.78125C76.812 0.78125 77.8276 1.11979 78.6023 1.79688C79.3836 2.47396 79.7742 3.32357 79.7742 4.3457C79.7742 5.00326 79.5594 5.62826 79.1297 6.2207C78.7 6.80664 78.0685 7.28841 77.2352 7.66602C78.3159 8.12826 79.0939 8.63932 79.5691 9.19922C80.0509 9.75911 80.2918 10.4688 80.2918 11.3281ZM77.9285 4.23828C77.9285 3.44401 77.6909 2.79948 77.2156 2.30469C76.7469 1.80339 76.1447 1.55273 75.409 1.55273C74.6733 1.55273 74.0711 1.79362 73.6023 2.27539C73.1336 2.75065 72.8992 3.3431 72.8992 4.05273C72.8992 4.73633 73.1661 5.31576 73.7 5.79102C74.2339 6.26628 75.1844 6.77409 76.5516 7.31445C77.0398 7.00195 77.3914 6.58854 77.6062 6.07422C77.8211 5.5599 77.9285 4.94792 77.9285 4.23828ZM78.3387 11.7871C78.3387 11.377 78.2508 11.0189 78.075 10.7129C77.8992 10.4004 77.6453 10.1172 77.3133 9.86328C76.9943 9.61589 76.5483 9.35872 75.9754 9.0918C75.409 8.81836 74.7937 8.54167 74.1297 8.26172C73.5047 8.60026 73.0457 9.0332 72.7527 9.56055C72.4598 10.0814 72.3133 10.6771 72.3133 11.3477C72.3133 12.3047 72.5932 13.0794 73.1531 13.6719C73.7195 14.2578 74.4715 14.5508 75.409 14.5508C76.3074 14.5508 77.0203 14.2904 77.5477 13.7695C78.075 13.2487 78.3387 12.5879 78.3387 11.7871ZM93.4254 11.3281C93.4254 12.4219 92.9534 13.3626 92.0094 14.1504C91.0654 14.9382 89.8251 15.332 88.2887 15.332C86.8499 15.332 85.6975 14.9707 84.8316 14.248C83.9658 13.5254 83.5328 12.5944 83.5328 11.4551C83.5328 10.6152 83.7867 9.91536 84.2945 9.35547C84.8089 8.78906 85.5673 8.31055 86.5699 7.91992C85.7431 7.45768 85.1246 6.94987 84.7145 6.39648C84.3043 5.8431 84.0992 5.2181 84.0992 4.52148C84.0992 3.46029 84.5484 2.57161 85.4469 1.85547C86.3518 1.13932 87.4326 0.78125 88.6891 0.78125C89.9456 0.78125 90.9612 1.11979 91.7359 1.79688C92.5172 2.47396 92.9078 3.32357 92.9078 4.3457C92.9078 5.00326 92.693 5.62826 92.2633 6.2207C91.8336 6.80664 91.2021 7.28841 90.3688 7.66602C91.4495 8.12826 92.2275 8.63932 92.7027 9.19922C93.1845 9.75911 93.4254 10.4688 93.4254 11.3281ZM91.0621 4.23828C91.0621 3.44401 90.8245 2.79948 90.3492 2.30469C89.8805 1.80339 89.2783 1.55273 88.5426 1.55273C87.8069 1.55273 87.2047 1.79362 86.7359 2.27539C86.2672 2.75065 86.0328 3.3431 86.0328 4.05273C86.0328 4.73633 86.2997 5.31576 86.8336 5.79102C87.3674 6.26628 88.318 6.77409 89.6852 7.31445C90.1734 7.00195 90.525 6.58854 90.7398 6.07422C90.9547 5.5599 91.0621 4.94792 91.0621 4.23828ZM91.4723 11.7871C91.4723 11.377 91.3844 11.0189 91.2086 10.7129C91.0328 10.4004 90.7789 10.1172 90.4469 9.86328C90.1279 9.61589 89.6819 9.35872 89.109 9.0918C88.5426 8.81836 87.9273 8.54167 87.2633 8.26172C86.6383 8.60026 86.1793 9.0332 85.8863 9.56055C85.5934 10.0814 85.4469 10.6771 85.4469 11.3477C85.4469 12.3047 85.7268 13.0794 86.2867 13.6719C86.8531 14.2578 87.6051 14.5508 88.5426 14.5508C89.441 14.5508 90.1539 14.2904 90.6813 13.7695C91.2086 13.2487 91.4723 12.5879 91.4723 11.7871ZM105.68 5.87891C106.097 6.38021 106.406 6.9694 106.608 7.64648C106.816 8.31706 106.92 9.02018 106.92 9.75586C106.92 10.6413 106.793 11.4355 106.539 12.1387C106.286 12.8353 105.937 13.4147 105.495 13.877C105.039 14.3522 104.498 14.7103 103.873 14.9512C103.248 15.1921 102.552 15.3125 101.784 15.3125C100.944 15.3125 100.195 15.1725 99.5375 14.8926C98.8799 14.6126 98.3461 14.2285 97.9359 13.7402C97.5062 13.2324 97.184 12.64 96.9691 11.9629C96.7608 11.2793 96.6566 10.5436 96.6566 9.75586C96.6566 8.98112 96.7576 8.26823 96.9594 7.61719C97.1677 6.96615 97.49 6.37695 97.9262 5.84961C98.3428 5.3418 98.8799 4.94141 99.5375 4.64844C100.195 4.35547 100.947 4.20898 101.793 4.20898C102.685 4.20898 103.45 4.35872 104.088 4.6582C104.726 4.95768 105.257 5.36458 105.68 5.87891ZM104.762 9.75586C104.762 8.20638 104.495 7.00521 103.961 6.15234C103.434 5.29948 102.715 4.87305 101.803 4.87305C100.879 4.87305 100.149 5.29948 99.6156 6.15234C99.0818 7.00521 98.8148 8.20638 98.8148 9.75586C98.8148 11.2272 99.0687 12.4121 99.5766 13.3105C100.091 14.2025 100.827 14.6484 101.784 14.6484C102.741 14.6484 103.476 14.2025 103.991 13.3105C104.505 12.4121 104.762 11.2272 104.762 9.75586ZM126.068 11.3281C126.068 12.4219 125.596 13.3626 124.652 14.1504C123.708 14.9382 122.468 15.332 120.932 15.332C119.493 15.332 118.34 14.9707 117.475 14.248C116.609 13.5254 116.176 12.5944 116.176 11.4551C116.176 10.6152 116.43 9.91536 116.938 9.35547C117.452 8.78906 118.21 8.31055 119.213 7.91992C118.386 7.45768 117.768 6.94987 117.357 6.39648C116.947 5.8431 116.742 5.2181 116.742 4.52148C116.742 3.46029 117.191 2.57161 118.09 1.85547C118.995 1.13932 120.076 0.78125 121.332 0.78125C122.589 0.78125 123.604 1.11979 124.379 1.79688C125.16 2.47396 125.551 3.32357 125.551 4.3457C125.551 5.00326 125.336 5.62826 124.906 6.2207C124.477 6.80664 123.845 7.28841 123.012 7.66602C124.092 8.12826 124.87 8.63932 125.346 9.19922C125.827 9.75911 126.068 10.4688 126.068 11.3281ZM123.705 4.23828C123.705 3.44401 123.467 2.79948 122.992 2.30469C122.523 1.80339 121.921 1.55273 121.186 1.55273C120.45 1.55273 119.848 1.79362 119.379 2.27539C118.91 2.75065 118.676 3.3431 118.676 4.05273C118.676 4.73633 118.943 5.31576 119.477 5.79102C120.01 6.26628 120.961 6.77409 122.328 7.31445C122.816 7.00195 123.168 6.58854 123.383 6.07422C123.598 5.5599 123.705 4.94792 123.705 4.23828ZM124.115 11.7871C124.115 11.377 124.027 11.0189 123.852 10.7129C123.676 10.4004 123.422 10.1172 123.09 9.86328C122.771 9.61589 122.325 9.35872 121.752 9.0918C121.186 8.81836 120.57 8.54167 119.906 8.26172C119.281 8.60026 118.822 9.0332 118.529 9.56055C118.236 10.0814 118.09 10.6771 118.09 11.3477C118.09 12.3047 118.37 13.0794 118.93 13.6719C119.496 14.2578 120.248 14.5508 121.186 14.5508C122.084 14.5508 122.797 14.2904 123.324 13.7695C123.852 13.2487 124.115 12.5879 124.115 11.7871ZM138.323 5.87891C138.74 6.38021 139.049 6.9694 139.251 7.64648C139.459 8.31706 139.563 9.02018 139.563 9.75586C139.563 10.6413 139.436 11.4355 139.182 12.1387C138.929 12.8353 138.58 13.4147 138.137 13.877C137.682 14.3522 137.141 14.7103 136.516 14.9512C135.891 15.1921 135.195 15.3125 134.427 15.3125C133.587 15.3125 132.838 15.1725 132.18 14.8926C131.523 14.6126 130.989 14.2285 130.579 13.7402C130.149 13.2324 129.827 12.64 129.612 11.9629C129.404 11.2793 129.3 10.5436 129.3 9.75586C129.3 8.98112 129.401 8.26823 129.602 7.61719C129.811 6.96615 130.133 6.37695 130.569 5.84961C130.986 5.3418 131.523 4.94141 132.18 4.64844C132.838 4.35547 133.59 4.20898 134.436 4.20898C135.328 4.20898 136.093 4.35872 136.731 4.6582C137.369 4.95768 137.9 5.36458 138.323 5.87891ZM137.405 9.75586C137.405 8.20638 137.138 7.00521 136.604 6.15234C136.077 5.29948 135.358 4.87305 134.446 4.87305C133.522 4.87305 132.792 5.29948 132.259 6.15234C131.725 7.00521 131.458 8.20638 131.458 9.75586C131.458 11.2272 131.712 12.4121 132.22 13.3105C132.734 14.2025 133.47 14.6484 134.427 14.6484C135.384 14.6484 136.119 14.2025 136.634 13.3105C137.148 12.4121 137.405 11.2272 137.405 9.75586ZM152.004 15H142.853V13.6719C143.029 13.4701 143.273 13.2454 143.586 12.998C143.898 12.7441 144.269 12.4707 144.699 12.1777C144.959 12.002 145.272 11.8099 145.636 11.6016C146.001 11.3932 146.414 11.1654 146.877 10.918C147.391 10.6445 147.785 10.4036 148.058 10.1953C148.338 9.98698 148.592 9.72982 148.82 9.42383C148.97 9.22201 149.09 8.97135 149.181 8.67188C149.272 8.36589 149.318 7.93294 149.318 7.37305C149.318 6.55924 149.1 5.96354 148.664 5.58594C148.227 5.20182 147.668 5.00977 146.984 5.00977C146.561 5.00977 146.16 5.0944 145.783 5.26367C145.405 5.42643 145.122 5.6543 144.933 5.94727C144.979 6.1556 145.034 6.40299 145.099 6.68945C145.171 6.97591 145.207 7.25586 145.207 7.5293C145.207 7.77669 145.102 7.99805 144.894 8.19336C144.692 8.38216 144.39 8.47656 143.986 8.47656C143.66 8.47656 143.41 8.36589 143.234 8.14453C143.058 7.91667 142.97 7.61393 142.97 7.23633C142.97 6.88477 143.068 6.5332 143.263 6.18164C143.459 5.82357 143.739 5.49479 144.103 5.19531C144.461 4.90234 144.904 4.66471 145.431 4.48242C145.959 4.30013 146.528 4.20898 147.14 4.20898C148.475 4.20898 149.533 4.50846 150.314 5.10742C151.102 5.69987 151.496 6.49414 151.496 7.49023C151.496 7.96549 151.424 8.39844 151.281 8.78906C151.144 9.17969 150.92 9.52474 150.607 9.82422C150.262 10.1562 149.858 10.4427 149.396 10.6836C148.934 10.918 148.227 11.2467 147.277 11.6699C146.711 11.9238 146.183 12.1908 145.695 12.4707C145.207 12.7441 144.806 13.0111 144.494 13.2715H152.004V15ZM165.059 11.3281C165.059 12.4219 164.587 13.3626 163.643 14.1504C162.699 14.9382 161.459 15.332 159.922 15.332C158.483 15.332 157.331 14.9707 156.465 14.248C155.599 13.5254 155.166 12.5944 155.166 11.4551C155.166 10.6152 155.42 9.91536 155.928 9.35547C156.442 8.78906 157.201 8.31055 158.204 7.91992C157.377 7.45768 156.758 6.94987 156.348 6.39648C155.938 5.8431 155.733 5.2181 155.733 4.52148C155.733 3.46029 156.182 2.57161 157.08 1.85547C157.985 1.13932 159.066 0.78125 160.323 0.78125C161.579 0.78125 162.595 1.11979 163.37 1.79688C164.151 2.47396 164.541 3.32357 164.541 4.3457C164.541 5.00326 164.327 5.62826 163.897 6.2207C163.467 6.80664 162.836 7.28841 162.002 7.66602C163.083 8.12826 163.861 8.63932 164.336 9.19922C164.818 9.75911 165.059 10.4688 165.059 11.3281ZM162.696 4.23828C162.696 3.44401 162.458 2.79948 161.983 2.30469C161.514 1.80339 160.912 1.55273 160.176 1.55273C159.441 1.55273 158.838 1.79362 158.37 2.27539C157.901 2.75065 157.666 3.3431 157.666 4.05273C157.666 4.73633 157.933 5.31576 158.467 5.79102C159.001 6.26628 159.952 6.77409 161.319 7.31445C161.807 7.00195 162.159 6.58854 162.373 6.07422C162.588 5.5599 162.696 4.94792 162.696 4.23828ZM163.106 11.7871C163.106 11.377 163.018 11.0189 162.842 10.7129C162.666 10.4004 162.413 10.1172 162.08 9.86328C161.761 9.61589 161.316 9.35872 160.743 9.0918C160.176 8.81836 159.561 8.54167 158.897 8.26172C158.272 8.60026 157.813 9.0332 157.52 9.56055C157.227 10.0814 157.08 10.6771 157.08 11.3477C157.08 12.3047 157.36 13.0794 157.92 13.6719C158.487 14.2578 159.239 14.5508 160.176 14.5508C161.075 14.5508 161.788 14.2904 162.315 13.7695C162.842 13.2487 163.106 12.5879 163.106 11.7871ZM184.217 11.3281C184.217 12.4219 183.745 13.3626 182.801 14.1504C181.857 14.9382 180.617 15.332 179.08 15.332C177.641 15.332 176.489 14.9707 175.623 14.248C174.757 13.5254 174.324 12.5944 174.324 11.4551C174.324 10.6152 174.578 9.91536 175.086 9.35547C175.6 8.78906 176.359 8.31055 177.361 7.91992C176.535 7.45768 175.916 6.94987 175.506 6.39648C175.096 5.8431 174.891 5.2181 174.891 4.52148C174.891 3.46029 175.34 2.57161 176.238 1.85547C177.143 1.13932 178.224 0.78125 179.48 0.78125C180.737 0.78125 181.753 1.11979 182.527 1.79688C183.309 2.47396 183.699 3.32357 183.699 4.3457C183.699 5.00326 183.484 5.62826 183.055 6.2207C182.625 6.80664 181.993 7.28841 181.16 7.66602C182.241 8.12826 183.019 8.63932 183.494 9.19922C183.976 9.75911 184.217 10.4688 184.217 11.3281ZM181.854 4.23828C181.854 3.44401 181.616 2.79948 181.141 2.30469C180.672 1.80339 180.07 1.55273 179.334 1.55273C178.598 1.55273 177.996 1.79362 177.527 2.27539C177.059 2.75065 176.824 3.3431 176.824 4.05273C176.824 4.73633 177.091 5.31576 177.625 5.79102C178.159 6.26628 179.109 6.77409 180.477 7.31445C180.965 7.00195 181.316 6.58854 181.531 6.07422C181.746 5.5599 181.854 4.94792 181.854 4.23828ZM182.264 11.7871C182.264 11.377 182.176 11.0189 182 10.7129C181.824 10.4004 181.57 10.1172 181.238 9.86328C180.919 9.61589 180.473 9.35872 179.9 9.0918C179.334 8.81836 178.719 8.54167 178.055 8.26172C177.43 8.60026 176.971 9.0332 176.678 9.56055C176.385 10.0814 176.238 10.6771 176.238 11.3477C176.238 12.3047 176.518 13.0794 177.078 13.6719C177.645 14.2578 178.396 14.5508 179.334 14.5508C180.232 14.5508 180.945 14.2904 181.473 13.7695C182 13.2487 182.264 12.5879 182.264 11.7871ZM196.491 5.15625L189.528 18.5645H188.307L194.86 6.16211H191.022C190.456 6.16211 190.013 6.16862 189.694 6.18164C189.375 6.19466 189.082 6.25651 188.815 6.36719C188.613 6.45182 188.431 6.66992 188.268 7.02148C188.112 7.36654 187.992 7.80924 187.907 8.34961H187.311V4.52148H196.491V5.15625ZM208.013 9.96094C208.013 11.0938 207.834 12.1615 207.476 13.1641C207.118 14.1602 206.604 15.0358 205.933 15.791C205.276 16.5332 204.472 17.1484 203.521 17.6367C202.577 18.1315 201.519 18.457 200.347 18.6133L200.171 17.7344L201.05 17.5781C202.45 17.1354 203.544 16.4551 204.332 15.5371C205.119 14.6191 205.627 13.4538 205.855 12.041C205.321 12.4967 204.787 12.832 204.254 13.0469C203.726 13.2552 203.13 13.3594 202.466 13.3594C201.405 13.3594 200.481 12.946 199.693 12.1191C198.912 11.2923 198.521 10.2507 198.521 8.99414C198.521 7.64648 198.974 6.51042 199.879 5.58594C200.79 4.66146 201.913 4.19922 203.248 4.19922C204.699 4.19922 205.855 4.7168 206.714 5.75195C207.58 6.78711 208.013 8.1901 208.013 9.96094ZM205.943 9.84375C205.943 8.32031 205.692 7.12891 205.191 6.26953C204.696 5.40365 204.042 4.9707 203.228 4.9707C202.453 4.9707 201.828 5.30599 201.353 5.97656C200.878 6.64062 200.64 7.55859 200.64 8.73047C200.64 9.78516 200.881 10.6315 201.363 11.2695C201.851 11.9076 202.502 12.2266 203.316 12.2266C203.824 12.2266 204.289 12.1354 204.712 11.9531C205.136 11.7643 205.53 11.4648 205.894 11.0547C205.894 11.0286 205.897 10.9766 205.904 10.8984C205.917 10.8203 205.923 10.7096 205.923 10.5664C205.923 10.4753 205.927 10.3646 205.933 10.2344C205.94 10.1042 205.943 9.97396 205.943 9.84375ZM218.129 15H211.547V14.3066C211.743 14.2936 212.045 14.2676 212.455 14.2285C212.872 14.1829 213.159 14.1374 213.315 14.0918C213.517 14.0267 213.67 13.9225 213.774 13.7793C213.885 13.6296 213.94 13.4082 213.94 13.1152V6.25977H211.508V5.43945H212.045C212.748 5.43945 213.377 5.30924 213.93 5.04883C214.49 4.78841 214.89 4.50846 215.131 4.20898H215.942C215.922 4.63216 215.903 5.12695 215.883 5.69336C215.864 6.25977 215.854 6.76758 215.854 7.2168V13.0078C215.854 13.2357 215.903 13.4408 216 13.623C216.105 13.7988 216.251 13.929 216.44 14.0137C216.609 14.0853 216.886 14.1504 217.27 14.209C217.654 14.2676 217.941 14.3001 218.129 14.3066V15ZM236.096 5.15625L229.133 18.5645H227.912L234.465 6.16211H230.627C230.061 6.16211 229.618 6.16862 229.299 6.18164C228.98 6.19466 228.687 6.25651 228.42 6.36719C228.218 6.45182 228.036 6.66992 227.873 7.02148C227.717 7.36654 227.596 7.80924 227.512 8.34961H226.916V4.52148H236.096V5.15625ZM247.891 14.1211H245.909V18.5645H244.034V14.1211H237.784V12.6172L244.63 4.26758H245.909V12.8418H247.891V14.1211ZM244.034 12.8418V6.44531L238.761 12.8418H244.034ZM254.57 18.5645C253.958 18.5645 253.398 18.4863 252.89 18.3301C252.382 18.1803 251.946 17.9753 251.582 17.7148C251.217 17.4544 250.934 17.1549 250.732 16.8164C250.537 16.4779 250.439 16.1296 250.439 15.7715C250.439 15.4525 250.517 15.166 250.673 14.9121C250.83 14.6517 251.08 14.5215 251.425 14.5215C251.816 14.5215 252.112 14.6191 252.314 14.8145C252.522 15.0033 252.627 15.2214 252.627 15.4688C252.627 15.6771 252.591 15.9408 252.519 16.2598C252.454 16.5788 252.402 16.8066 252.363 16.9434C252.408 17.002 252.49 17.0801 252.607 17.1777C252.731 17.2754 252.88 17.3633 253.056 17.4414C253.265 17.5391 253.483 17.6172 253.711 17.6758C253.938 17.7344 254.261 17.7637 254.677 17.7637C255.068 17.7637 255.442 17.6986 255.8 17.5684C256.165 17.4382 256.484 17.2298 256.757 16.9434C257.044 16.6439 257.265 16.2923 257.421 15.8887C257.584 15.4915 257.666 14.9674 257.666 14.3164C257.666 13.9648 257.627 13.6165 257.548 13.2715C257.477 12.9264 257.34 12.627 257.138 12.373C256.936 12.1191 256.66 11.9238 256.308 11.7871C255.963 11.6439 255.524 11.5723 254.99 11.5723H253.711V10.4492H254.56C255.459 10.4492 256.106 10.2018 256.504 9.70703C256.901 9.21224 257.099 8.4668 257.099 7.4707C257.099 6.6569 256.907 6.04492 256.523 5.63477C256.139 5.2181 255.595 5.00977 254.892 5.00977C254.554 5.00977 254.274 5.05208 254.052 5.13672C253.837 5.21484 253.662 5.29297 253.525 5.37109C253.362 5.46224 253.229 5.56315 253.125 5.67383C253.02 5.78451 252.942 5.86589 252.89 5.91797C252.936 6.1263 252.991 6.38346 253.056 6.68945C253.121 6.98893 253.154 7.27539 253.154 7.54883C253.154 7.78971 253.05 8.00781 252.841 8.20312C252.64 8.39193 252.34 8.48633 251.943 8.48633C251.598 8.48633 251.344 8.36263 251.181 8.11523C251.025 7.86784 250.947 7.58138 250.947 7.25586C250.947 6.91732 251.041 6.57227 251.23 6.2207C251.419 5.86914 251.699 5.54036 252.07 5.23438C252.441 4.92839 252.893 4.68099 253.427 4.49219C253.961 4.30339 254.576 4.20898 255.273 4.20898C256.074 4.20898 256.735 4.32943 257.255 4.57031C257.783 4.80469 258.196 5.09115 258.496 5.42969C258.789 5.76172 258.99 6.11003 259.101 6.47461C259.212 6.83919 259.267 7.15169 259.267 7.41211C259.267 7.73763 259.222 8.06641 259.13 8.39844C259.039 8.72396 258.89 9.02669 258.681 9.30664C258.453 9.61263 258.151 9.89258 257.773 10.1465C257.402 10.3939 256.933 10.5957 256.367 10.752V10.9082C256.731 10.9408 257.119 11.0221 257.529 11.1523C257.946 11.2826 258.32 11.4746 258.652 11.7285C258.997 11.9954 259.28 12.3405 259.502 12.7637C259.723 13.1803 259.834 13.7109 259.834 14.3555C259.834 15.6055 259.332 16.6178 258.33 17.3926C257.327 18.1738 256.074 18.5645 254.57 18.5645ZM270.282 10.4199C270.711 10.7585 271.066 11.1947 271.346 11.7285C271.633 12.2624 271.776 12.9297 271.776 13.7305C271.776 15.1302 271.297 16.2858 270.34 17.1973C269.383 18.1087 268.169 18.5645 266.698 18.5645C265.558 18.5645 264.595 18.2943 263.807 17.7539C263.019 17.2135 262.625 16.5853 262.625 15.8691C262.625 15.5371 262.707 15.2474 262.87 15C263.032 14.7526 263.283 14.6289 263.621 14.6289C264.012 14.6289 264.308 14.7331 264.51 14.9414C264.718 15.1432 264.823 15.3646 264.823 15.6055C264.823 15.8138 264.787 16.0742 264.715 16.3867C264.644 16.6992 264.588 16.9303 264.549 17.0801C264.601 17.1257 264.686 17.1875 264.803 17.2656C264.92 17.3438 265.06 17.4186 265.223 17.4902C265.392 17.5618 265.597 17.6237 265.838 17.6758C266.086 17.7344 266.372 17.7637 266.698 17.7637C267.114 17.7637 267.508 17.679 267.879 17.5098C268.25 17.3405 268.563 17.0898 268.817 16.7578C269.097 16.3932 269.305 15.9766 269.442 15.5078C269.585 15.0456 269.657 14.4564 269.657 13.7402C269.657 12.8223 269.399 12.0638 268.885 11.4648C268.377 10.8594 267.707 10.5566 266.873 10.5566C266.353 10.5566 265.864 10.6543 265.409 10.8496C264.959 11.0449 264.556 11.3704 264.198 11.8262L263.543 11.5723L264.373 4.52148H271.366V6.25977H265.164L264.657 10.4004C264.95 10.1921 265.334 9.98698 265.809 9.78516C266.291 9.57682 266.818 9.47266 267.391 9.47266C267.866 9.47266 268.358 9.54753 268.866 9.69727C269.38 9.84049 269.852 10.0814 270.282 10.4199Z" fill="#545454"/>
</svg>
